{"title":"Humshakals [2014] - DVDRip - 1CD - XviD - MP3 - E-Sub - eXclusiv","uid":10788291,"size":748432677,"categoryP":"video","categoryS":"movies","magnet":"?xt=urn:btih:b1d11e5808f83f7dac48ec2b2838f5a0a7bfed57&amp;dn=Humshakals+%5B2014%5D+-+DVDRip+-+1CD+-+XviD+-+MP3+-+E-Sub+-+eXclusiv&amp;tr=udp%3A%2F%2Ftracker.openbittorrent.com%3A80&amp;tr=udp%3A%2F%2Fopen.demonii.com%3A1337&amp;tr=udp%3A%2F%2Ftracker.coppersurfer.tk%3A6969&amp;tr=udp%3A%2F%2Fexodus.desync.com%3A6969","seeders":1,"leechers":0,"uploader":"TeamMCT","files":18,"time":1408228142,"description":"[CENTER]\n[quote=&quot;Team MCT ~ MovieClub&quot;][COLOR=&quot;Brown&quot;][SIZE=&quot;4&quot;][b]Problem-* Screenshots Wont Be Clear As It Is When It's Downloaded![/b][/SIZE][/COLOR]\n[COLOR=&quot;Purple&quot;][SIZE=&quot;4&quot;][b]Reason-* Screenshots Have Been Taken From Windows Server![/b][/SIZE][/COLOR]\n[COLOR=&quot;Green&quot;][SIZE=&quot;4&quot;][b]Solution-* Please Check The Sample Link Provided Below![/b][/SIZE][/COLOR][/quote]\n\n[quote=&quot;Downloaders&quot;][COLOR=&quot;Red&quot;][SIZE=&quot;3&quot;][b]Please Don't Complain if the video is not working! It has been tested!\nTry a different Video Player...If Any problems Please comment and, We as a team will help you![/b][/SIZE][/COLOR][/quote][/CENTER]\n\n\n[CENTER][IMG]http://i.imgbox.com/ZWbSnYVO.png[/IMG][/CENTER]\n\n\n[CENTER][IMG]http://i.imgur.com/SWjWWeX.jpg[/IMG][/CENTER]\n\n\n[CENTER][B][COLOR=&quot;brown&quot;][SIZE=6]Media Info[/SIZE][/COLOR][/B][/CENTER]\n\n[CENTER][quote=&quot;Team MCT&quot;]\nGeneral\nComplete name                            : Humshakals [2014].avi\nFormat                                   : AVI\nFile size                                : 700 MiB\nDuration                                 : 2h 22mn\nOverall bit rate                         : 686 Kbps\nEncoded date                             : UTC 2014-08-16 22:54:30\n_STATISTICS_WRITING_DATE_UTC             : 2014-08-16 22:54:30\n_STATISTICS_TAGS                         : BPS DURATION NUMBER_OF_FRAMES NUMBER_OF_BYTES\n\nVideo\nID                                       : 1\nFormat                                   : AVC\nFormat/Info                              : Advanced Video Codec\nFormat profile                           : &lt;a class=&quot;__cf_email__&quot; href=&quot;/cdn-cgi/l/email-protection&quot; data-cfemail=&quot;2c64454b446c601f021c&quot;&gt;[email&amp;#160;protected]&lt;/a&gt;&lt;script cf-hash='f9e31' type=&quot;text/javascript&quot;&gt;\n/* &lt;![CDATA[ */!function(){try{var t=&quot;currentScript&quot;in document?document.currentScript:function(){for(var t=document.getElementsByTagName(&quot;script&quot;),e=t.length;e--;)if(t[e].getAttribute(&quot;cf-hash&quot;))return t[e]}();if(t&amp;&amp;t.previousSibling){var e,r,n,i,c=t.previousSibling,a=c.getAttribute(&quot;data-cfemail&quot;);if(a){for(e=&quot;&quot;,r=parseInt(a.substr(0,2),16),n=2;a.length-n;n+=2)i=parseInt(a.substr(n,2),16)^r,e+=String.fromCharCode(i);e=document.createTextNode(e),c.parentNode.replaceChild(e,c)}}}catch(u){}}();/* ]]&gt; */&lt;/script&gt;\nFormat settings, CABAC                   : Yes\nFormat settings, ReFrames                : 4 frames\nCodec ID                                 : V_MPEG4/ISO/AVC\nDuration                                 : 2h 22mn\nBit rate                                 : 604 Kbps\nWidth                                    : 640 pixels\nHeight                                   : 272 pixels\nDisplay aspect ratio                     : 2.35:1\nFrame rate mode                          : Constant\nFrame rate                               : 29.970 fps\nColor space                              : YUV\nChroma subsampling                       : 4:2:0\nBit depth                                : 8 bits\nScan type                                : Progressive\nBits/(Pixel*Frame)                       : 0.116\nStream size                              : 605 MiB (86%)\nTitle                                    : Team MCT\nLanguage                                 : Hindi\nDefault                                  : Yes\nForced                                   : No\nDURATION                                 : 02:22:45.556000000\nNUMBER_OF_FRAMES                         : 256710\nNUMBER_OF_BYTES                          : 646670587\n_STATISTICS_TAGS                         : BPS DURATION NUMBER_OF_FRAMES NUMBER_OF_BYTES\n\nAudio\nID                                       : 2\nFormat                                   : MPEG Audio\nFormat version                           : Version 1\nFormat profile                           : Layer 3\nMode                                     : Joint stereo\nMode extension                           : MS Stereo\nCodec ID                                 : A_MPEG/L3\nCodec ID/Hint                            : MP3\nDuration                                 : 2h 22mn\nBit rate mode                            : Constant\nBit rate                                 : 80.0 Kbps\nChannel count                            : 2 channels\nSampling rate                            : 32.0 KHz\nCompression mode                         : Lossy\nStream size                              : 81.7 MiB (12%)\nTitle                                    : Hindi - Team MCT\nWriting library                          : LAME3.99r\nEncoding settings                        : -m j -V 4 -q 2 -lowpass 13.5 -b 80\nLanguage                                 : Hindi\nDefault                                  : Yes\nForced                                   : No\n[/quote][/CENTER]\n\n\n[CENTER][B][COLOR=&quot;brown&quot;][SIZE=6]Screenshots[/SIZE][/COLOR][/B][/CENTER]\n[CENTER]\n[URL=http://imgbox.com/Yh9GXVzp][IMG]http://i.imgbox.com/Yh9GXVzp.png[/IMG][/URL] [URL=http://imgbox.com/uJTxBEZb][IMG]http://i.imgbox.com/uJTxBEZb.png[/IMG][/URL] [URL=http://imgbox.com/rH2uySqb][IMG]http://i.imgbox.com/rH2uySqb.png[/IMG][/URL] [URL=http://imgbox.com/FvrShX29][IMG]http://i.imgbox.com/FvrShX29.png[/IMG][/URL] [URL=http://imgbox.com/Xv39euPs][IMG]http://i.imgbox.com/Xv39euPs.png[/IMG][/URL] [URL=http://imgbox.com/5pX2II7f][IMG]http://i.imgbox.com/5pX2II7f.png[/IMG][/URL] [URL=http://imgbox.com/PizonqXW][IMG]http://i.imgbox.com/PizonqXW.png[/IMG][/URL] [URL=http://imgbox.com/W29HRpl6][IMG]http://i.imgbox.com/W29HRpl6.png[/IMG][/URL] [URL=http://imgbox.com/BVLtqEGE][IMG]http://i.imgbox.com/BVLtqEGE.png[/IMG][/URL] [URL=http://imgbox.com/cnoClGn2][IMG]http://i.imgbox.com/cnoClGn2.png[/IMG][/URL] [URL=http://imgbox.com/9AJ7RUGX][IMG]http://i.imgbox.com/9AJ7RUGX.png[/IMG][/URL]\n[/CENTER]\n\n\n\n\n[size=3][b][center]Credit To Original Source :)[/center][/b][/size]\n\n\n[CENTER]==================================\n[COLOR=&quot;RED&quot;][SIZE=&quot;4&quot;][b]SLOW SEEDING - PLEASE BE PATIENT[/b][/SIZE][/COLOR]\n==================================[/CENTER]\n\n[CENTER][B]Team MCT -=: MovieClub :=-[/B][/CENTER]\n\n[CENTER][COLOR=&quot;Purple&quot;][SIZE=&quot;3&quot;][b]Don't Forget To Say &quot;Thanks&quot;! And &quot;Comment&quot;! If You Like My Post![/b][/SIZE][/COLOR][/CENTER]\n[CENTER][COLOR=&quot;Green&quot;][SIZE=&quot;3&quot;][b]If You Don't Reply, This Post Will &quot;Die&quot;![/b][/SIZE][/COLOR][/CENTER]\n[CENTER][COLOR=&quot;Brown&quot;][SIZE=&quot;3&quot;][b]Check Sample Before &quot;Commenting&quot;![/b][/SIZE][/COLOR][/CENTER]\n\n[quote=&quot;MovieClub&quot;]Please Seed After downloading...and maintain your Ratio!\nIf Any Mistake, Forgive Me...All Suggestions, Instructions, Orders By Admin ETC, Heartly Accepted...\nIf You Want Any Other, Please PM Me...[/quote]","torrent":{"xt":"urn:btih:b1d11e5808f83f7dac48ec2b2838f5a0a7bfed57","amp;dn":"Humshakals+%5B2014%5D+-+DVDRip+-+1CD+-+XviD+-+MP3+-+E-Sub+-+eXclusiv","amp;tr":["udp%3A%2F%2Ftracker.openbittorrent.com%3A80","udp%3A%2F%2Fopen.demonii.com%3A1337","udp%3A%2F%2Ftracker.coppersurfer.tk%3A6969","udp%3A%2F%2Fexodus.desync.com%3A6969"],"infoHash":"b1d11e5808f83f7dac48ec2b2838f5a0a7bfed57","infoHashBuffer":{"type":"Buffer","data":[177,209,30,88,8,248,63,125,172,72,236,43,40,56,245,160,167,191,237,87]},"announce":[],"urlList":[]}}